<svg width="30" height="30" fill="none" xmlns="http://www.w3.org/2000/svg"><path d="M26.308 16.47c.06-.48.105-.96.105-1.47s-.045-.99-.105-1.47l3.159-2.475a.758.758 0 00.18-.96l-2.995-5.19a.75.75 0 00-.913-.33l-3.728 1.5a10.936 10.936 0 00-2.53-1.47L18.91.63a.732.732 0 00-.733-.63h-5.99a.73.73 0 00-.733.63l-.569 3.975c-.913.375-1.752.885-2.53 1.47l-3.729-1.5a.846.846 0 00-.27-.045.741.741 0 00-.643.375L.72 10.095a.74.74 0 00.18.96l3.158 2.475c-.06.48-.104.975-.104 1.47s.045.99.104 1.47L.9 18.945a.758.758 0 00-.18.96l2.995 5.19a.75.75 0 00.913.33l3.729-1.5c.778.6 1.617 1.095 2.53 1.47l.569 3.975c.045.36.36.63.734.63h5.989a.73.73 0 00.733-.63l.57-3.975c.913-.375 1.751-.885 2.53-1.47l3.728 1.5c.09.03.18.045.27.045.254 0 .508-.135.643-.375l2.995-5.19a.758.758 0 00-.18-.96l-3.16-2.475zm-2.965-2.565c.06.465.075.78.075 1.095 0 .315-.03.645-.075 1.095l-.21 1.695 1.333 1.05 1.617 1.26-1.048 1.815-1.901-.765-1.558-.63-1.347 1.02c-.644.48-1.258.84-1.872 1.095l-1.587.645-.24 1.695L16.232 27h-2.096l-.284-2.025-.24-1.695-1.587-.645a8.492 8.492 0 01-1.842-1.065L8.82 20.52l-1.587.645-1.902.765-1.048-1.815 1.617-1.26 1.333-1.05-.21-1.695c-.045-.465-.075-.81-.075-1.11 0-.3.03-.645.075-1.095l.21-1.695L5.9 11.16 4.283 9.9l1.048-1.815 1.902.765 1.557.63 1.347-1.02c.644-.48 1.258-.84 1.872-1.095l1.587-.645.24-1.695.3-2.025h2.08l.285 2.025.24 1.695 1.586.645c.644.27 1.243.615 1.842 1.065l1.363 1.05 1.587-.645 1.901-.765 1.048 1.815-1.602 1.275-1.332 1.05.21 1.695zM15.183 9a5.993 5.993 0 00-5.989 6c0 3.315 2.68 6 5.99 6a5.993 5.993 0 005.988-6c0-3.315-2.68-6-5.989-6zm0 9a3.006 3.006 0 01-2.994-3c0-1.65 1.347-3 2.994-3a3.006 3.006 0 012.995 3c0 1.65-1.348 3-2.995 3z" fill="#fff"/></svg>